<svg xmlns="http://www.w3.org/2000/svg" viewBox="0 0 52 28.3"><defs><style>.cls-1{fill:#9f7567;}</style></defs><title>Asset 1</title><g id="Layer_2" data-name="Layer 2"><g id="Layer_1-2" data-name="Layer 1"><path class="cls-1" d="M11.19,14.48l3.29,2.63,3.29,2.63-.66,3.95L10.53,28.3H3.95l2.63-2,4.61-7.9Zm16.46,5.27,3.29.66,7.24,3.29-2,3.95H30.28l2-1.32ZM0,8.67l3.29-2,.66-2L9.87.16v2h5.27l4.61-2,5.92,1.31q9.2-2,12.51-1.31t6.58,6.54L52,28.3H44.76q2.41-1.73,2-2c-.44-.23-5.73-2.53-10.53-5.24a25.15,25.15,0,0,0-10.53-3.27v6.54L25,28.3H18.43l2-2V21.76l-1.32-2.62-7.9-6.54-5.27-.65L1.32,10.64Z"/></g></g></svg>