<svg id="Layer_1" data-name="Layer 1" xmlns="http://www.w3.org/2000/svg" viewBox="0 0 115 109"><defs><style>.cls-1{fill:#ff5301;}</style></defs><title>Untitled-1</title><path class="cls-1" d="M50.58,47.69,42.13,67.17a1.89,1.89,0,0,0,1,2.58,2,2,0,0,0,2.64-1L54,49.88a19.1,19.1,0,0,0-2.64-1.81Z"/><path class="cls-1" d="M57.23,42.46a2.22,2.22,0,0,1,.32-.71,1.89,1.89,0,0,0-1-2.58,2,2,0,0,0-2.64,1c-.06.13-.39.9-.45,1.1C54.58,41.69,55.94,42.14,57.23,42.46Z"/><path class="cls-1" d="M72.13,43.82a28.74,28.74,0,0,1-14.51.06,31.69,31.69,0,0,1-5-1.61.57.57,0,0,0-.77.32l-1.29,2.9a.6.6,0,0,0,.26.77,18.7,18.7,0,0,1,4.45,3,13.4,13.4,0,0,1,4.84,10.51.82.82,0,0,0,1.1.77C64,59.36,71.29,55.36,73.1,44.72A.77.77,0,0,0,72.13,43.82Z"/></svg>
