<svg id="Layer_1" data-name="Layer 1" xmlns="http://www.w3.org/2000/svg" viewBox="0 0 115 109"><defs><style>.cls-1{fill:#ff5301;}</style></defs><title>Untitled-1</title><path class="cls-1" d="M70,50.32a12,12,0,0,1-8.43,4.86c-.29-2.09-.55-4.18-.84-6.25-1.86-1.86-3.7-3.71-5.56-5.56l3.51-3.51Z"/><polygon class="cls-1" points="69.98 50.3 69.27 51.26 68.43 52.09 67.5 52.86 66.5 53.5 65.4 54.08 64.21 54.53 62.92 54.91 61.56 55.17 60.72 48.92 55.16 43.36 58.67 39.85 69.98 50.3"/><polygon class="cls-1" points="53.13 47.97 54.95 45.9 58.41 49.36 42.63 66.56 41.99 67.68 41.27 69.97 38 68.9 38.76 66.41 40.34 63.67 52.66 51.38 53.13 47.97"/><polygon class="cls-1" points="53.13 47.97 54.95 45.91 58.41 49.37 42.63 66.56 41.99 67.68 41.27 70 38 68.9 38.76 66.41 40.34 63.69 52.66 51.38 53.13 47.97"/><path class="cls-1" d="M67,60.14v5l-3.56,3.53a5,5,0,0,0,7.11-7.09A5.08,5.08,0,0,0,67,60.14Z"/><path class="cls-1" d="M67,60.14v5l-3.53,3.56A5,5,0,1,0,67,60.14Z"/><path class="cls-1" d="M61.32,60.19v5l3.53-3.56A5,5,0,0,0,61.32,60.19Z"/><path class="cls-1" d="M61.29,60.19v5l3.58-3.56a5.14,5.14,0,0,0-3.58-1.46Z"/><path class="cls-1" d="M60,69.54,57.52,65.2,54,68.75A5,5,0,0,0,60,69.54Z"/><path class="cls-1" d="M60,69.54,57.52,65.2,54,68.75a5,5,0,0,0,6.06.79Z"/></svg>