<svg xmlns="http://www.w3.org/2000/svg" viewBox="0 0 31.16 30.92"><defs><style>.cls-1{fill:#ff5301;}</style></defs><title>lumberjack_icon1</title><g id="Layer_2" data-name="Layer 2"><g id="Layer_1-2" data-name="Layer 1"><path class="cls-1" d="M8.62,8.69.17,28.17a1.89,1.89,0,0,0,1,2.58,2,2,0,0,0,2.64-1L12,10.88A19.1,19.1,0,0,0,9.4,9.08Z"/><path class="cls-1" d="M15.27,3.46a2.22,2.22,0,0,1,.32-.71,1.89,1.89,0,0,0-1-2.58,2,2,0,0,0-2.64,1c-.06.13-.39.9-.45,1.1C12.62,2.69,14,3.14,15.27,3.46Z"/><path class="cls-1" d="M30.17,4.82a28.74,28.74,0,0,1-14.51.06,31.69,31.69,0,0,1-5-1.61.57.57,0,0,0-.77.32L8.56,6.5a.6.6,0,0,0,.26.77,18.7,18.7,0,0,1,4.45,3,13.4,13.4,0,0,1,4.84,10.51.82.82,0,0,0,1.1.77C22,20.36,29.33,16.36,31.14,5.72A.77.77,0,0,0,30.17,4.82Z"/></g></g></svg>